<mxfile host="app.diagrams.net" modified="2024-06-23T18:28:39.557Z" agent="Mozilla/5.0 (Windows NT 10.0; Win64; x64) AppleWebKit/537.36 (KHTML, like Gecko) Chrome/126.0.0.0 Safari/537.36" etag="IYXqMg_IyoI1rciT7bzj" version="24.6.2" type="device">
  <diagram name="Page-1" id="FrDLJNgsu7KSkA-Sdw2q">
    <mxGraphModel dx="1434" dy="738" grid="1" gridSize="10" guides="1" tooltips="1" connect="1" arrows="1" fold="1" page="1" pageScale="1" pageWidth="827" pageHeight="1169" math="0" shadow="0">
      <root>
        <mxCell id="0" />
        <mxCell id="1" parent="0" />
        <mxCell id="sbqYIOZTMvTxq47W4Cnv-1" value="" style="endArrow=none;dashed=1;html=1;dashPattern=1 3;strokeWidth=2;rounded=0;" parent="1" edge="1">
          <mxGeometry width="50" height="50" relative="1" as="geometry">
            <mxPoint x="100" y="390" as="sourcePoint" />
            <mxPoint x="190" y="390" as="targetPoint" />
          </mxGeometry>
        </mxCell>
        <mxCell id="sbqYIOZTMvTxq47W4Cnv-2" value="" style="triangle;whiteSpace=wrap;html=1;" parent="1" vertex="1">
          <mxGeometry x="190" y="380" width="20" height="20" as="geometry" />
        </mxCell>
        <mxCell id="sbqYIOZTMvTxq47W4Cnv-4" value="Encoder" style="rounded=0;whiteSpace=wrap;html=1;" parent="1" vertex="1">
          <mxGeometry x="210" y="285" width="100" height="210" as="geometry" />
        </mxCell>
        <mxCell id="sbqYIOZTMvTxq47W4Cnv-6" value="" style="endArrow=classic;html=1;rounded=0;exitX=1;exitY=0.5;exitDx=0;exitDy=0;" parent="1" source="sbqYIOZTMvTxq47W4Cnv-4" edge="1">
          <mxGeometry width="50" height="50" relative="1" as="geometry">
            <mxPoint x="390" y="410" as="sourcePoint" />
            <mxPoint x="390" y="390" as="targetPoint" />
          </mxGeometry>
        </mxCell>
        <mxCell id="sbqYIOZTMvTxq47W4Cnv-7" value="Channel" style="rounded=0;whiteSpace=wrap;html=1;" parent="1" vertex="1">
          <mxGeometry x="390" y="345" width="100" height="90" as="geometry" />
        </mxCell>
        <mxCell id="sbqYIOZTMvTxq47W4Cnv-8" value="Decoder" style="rounded=0;whiteSpace=wrap;html=1;fillColor=#dae8fc;strokeColor=#6c8ebf;" parent="1" vertex="1">
          <mxGeometry x="570" y="285" width="100" height="210" as="geometry" />
        </mxCell>
        <mxCell id="sbqYIOZTMvTxq47W4Cnv-9" value="" style="endArrow=classic;html=1;rounded=0;exitX=1;exitY=0.5;exitDx=0;exitDy=0;" parent="1" edge="1">
          <mxGeometry width="50" height="50" relative="1" as="geometry">
            <mxPoint x="490" y="389.5" as="sourcePoint" />
            <mxPoint x="570" y="389.5" as="targetPoint" />
          </mxGeometry>
        </mxCell>
        <mxCell id="sbqYIOZTMvTxq47W4Cnv-10" value="" style="endArrow=none;dashed=1;html=1;dashPattern=1 3;strokeWidth=2;rounded=0;" parent="1" edge="1">
          <mxGeometry width="50" height="50" relative="1" as="geometry">
            <mxPoint x="670" y="389.5" as="sourcePoint" />
            <mxPoint x="760" y="389.5" as="targetPoint" />
          </mxGeometry>
        </mxCell>
        <mxCell id="sbqYIOZTMvTxq47W4Cnv-11" value="" style="triangle;whiteSpace=wrap;html=1;" parent="1" vertex="1">
          <mxGeometry x="760" y="380" width="20" height="20" as="geometry" />
        </mxCell>
        <mxCell id="sbqYIOZTMvTxq47W4Cnv-12" value="Message Signal" style="text;html=1;align=center;verticalAlign=middle;whiteSpace=wrap;rounded=0;" parent="1" vertex="1">
          <mxGeometry x="120" y="400" width="60" height="30" as="geometry" />
        </mxCell>
        <mxCell id="sbqYIOZTMvTxq47W4Cnv-15" value="Received signal" style="text;html=1;align=center;verticalAlign=middle;whiteSpace=wrap;rounded=0;" parent="1" vertex="1">
          <mxGeometry x="680" y="400" width="60" height="30" as="geometry" />
        </mxCell>
      </root>
    </mxGraphModel>
  </diagram>
</mxfile>
